<svg width="346" height="31" viewBox="0 0 346 31" fill="none" xmlns="http://www.w3.org/2000/svg">
<path d="M11.15 1.14C12.73 1.14 14.21 1.45 15.59 2.07C16.99 2.69 18.21 3.55 19.25 4.65C20.31 5.73 21.13 6.98 21.71 8.4C22.31 9.82 22.61 11.33 22.61 12.93C22.61 14.53 22.32 16.03 21.74 17.43C21.16 18.81 20.35 20.02 19.31 21.06C18.29 22.1 17.11 22.92 15.77 23.52C14.43 24.1 13 24.39 11.48 24.39C9.9 24.39 8.41 24.08 7.01 23.46C5.63 22.84 4.42 21.99 3.38 20.91C2.34 19.81 1.52 18.55 0.92 17.13C0.34 15.71 0.05 14.21 0.05 12.63C0.05 11.07 0.33 9.6 0.89 8.22C1.45 6.84 2.23 5.62 3.23 4.56C4.25 3.48 5.43 2.64 6.77 2.04C8.11 1.44 9.57 1.14 11.15 1.14ZM10.82 3.78C8.82 3.78 7.27 4.45 6.17 5.79C5.07 7.11 4.52 8.86 4.52 11.04C4.52 11.9 4.61 12.82 4.79 13.8C4.97 14.78 5.24 15.74 5.6 16.68C5.98 17.6 6.46 18.44 7.04 19.2C7.62 19.96 8.3 20.57 9.08 21.03C9.86 21.49 10.76 21.72 11.78 21.72C13.14 21.72 14.29 21.42 15.23 20.82C16.19 20.2 16.91 19.35 17.39 18.27C17.89 17.17 18.14 15.91 18.14 14.49C18.14 13.71 18.05 12.84 17.87 11.88C17.71 10.92 17.44 9.97 17.06 9.03C16.7 8.07 16.23 7.2 15.65 6.42C15.09 5.62 14.41 4.98 13.61 4.5C12.81 4.02 11.88 3.78 10.82 3.78ZM32.8264 22.2C33.1264 22.2 33.2764 22.35 33.2764 22.65V23.55C33.2764 23.85 33.1064 24 32.7664 24H24.2764C23.9364 24 23.7664 23.85 23.7664 23.55V22.65C23.7664 22.35 23.9164 22.2 24.2164 22.2H24.2764C25.0164 22.2 25.5564 21.93 25.8964 21.39C26.2564 20.83 26.4364 20.15 26.4364 19.35V8.1C26.4364 7.54 26.3964 7.01 26.3164 6.51C26.2564 6.01 26.1064 5.59 25.8664 5.25C25.6264 4.89 25.2264 4.68 24.6664 4.62C24.4264 4.6 24.3064 4.47 24.3064 4.23V3.21C24.3064 3.09 24.3464 3.01 24.4264 2.97C24.5064 2.93 24.6164 2.88 24.7564 2.82C26.1764 2.3 27.3064 1.82 28.1464 1.38C29.0064 0.92 29.7164 0.479999 30.2764 0.0599989C30.3164 0.0199994 30.3564 -3.57628e-07 30.3964 -3.57628e-07H30.4864C30.5264 -3.57628e-07 30.5464 0.0199994 30.5464 0.0599989V19.32C30.5464 20.12 30.7264 20.8 31.0864 21.36C31.4464 21.92 31.9964 22.2 32.7364 22.2H32.8264ZM49.0037 18.45C49.0037 19.17 49.1137 19.82 49.3337 20.4C49.5537 20.96 50.0337 21.29 50.7737 21.39C51.0137 21.41 51.1337 21.54 51.1337 21.78V22.77C51.1337 23.05 50.9837 23.19 50.6837 23.19C49.7037 23.19 48.8837 23.25 48.2237 23.37C47.5837 23.47 47.0237 23.61 46.5437 23.79C46.0837 23.95 45.6237 24.13 45.1637 24.33C45.0837 24.37 45.0137 24.39 44.9537 24.39H44.8637C44.8237 24.39 44.8037 24.35 44.8037 24.27C44.8037 24.19 44.8237 24 44.8637 23.7C44.9037 23.38 44.9437 23.03 44.9837 22.65C45.0437 22.25 45.0937 21.91 45.1337 21.63C45.0337 21.89 44.8137 22.24 44.4737 22.68C44.1537 23.12 43.6737 23.52 43.0337 23.88C42.4137 24.22 41.5937 24.39 40.5737 24.39C39.8937 24.39 39.1637 24.25 38.3837 23.97C37.6237 23.69 36.9037 23.24 36.2237 22.62C35.5437 22 34.9837 21.19 34.5437 20.19C34.1237 19.17 33.9137 17.93 33.9137 16.47C33.9137 14.61 34.2437 13.11 34.9037 11.97C35.5837 10.81 36.4537 9.96 37.5137 9.42C38.5937 8.88 39.7337 8.61 40.9337 8.61C41.9137 8.61 42.8137 8.76 43.6337 9.06C44.4537 9.36 45.1737 9.79 45.7937 10.35C46.3137 10.13 46.7537 9.93 47.1137 9.75C47.4937 9.55 47.8137 9.35 48.0737 9.15C48.1737 9.07 48.2737 8.99 48.3737 8.91C48.4937 8.83 48.6237 8.75 48.7637 8.67C48.8237 8.63 48.8737 8.61 48.9137 8.61H48.9437C48.9837 8.61 49.0037 8.63 49.0037 8.67V18.45ZM44.8037 13.74C44.7437 13.34 44.5937 12.9 44.3537 12.42C44.1337 11.92 43.7937 11.5 43.3337 11.16C42.8737 10.8 42.2537 10.62 41.4737 10.62C40.5137 10.62 39.7637 10.86 39.2237 11.34C38.6837 11.8 38.3037 12.4 38.0837 13.14C37.8837 13.88 37.7837 14.67 37.7837 15.51C37.7837 17.43 38.1637 18.95 38.9237 20.07C39.7037 21.19 40.7037 21.75 41.9237 21.75C42.6437 21.75 43.2037 21.6 43.6037 21.3C44.0237 20.98 44.3237 20.66 44.5037 20.34C44.6837 20.02 44.7837 19.83 44.8037 19.77V13.74ZM39.4637 6.66C40.1037 5.84 40.6037 5.15 40.9637 4.59C41.3437 4.03 41.6537 3.5 41.8937 3C42.1537 2.48 42.4137 1.9 42.6737 1.26C42.7537 1.08 42.9037 0.969999 43.1237 0.929998C43.3637 0.869999 43.5837 0.84 43.7837 0.84C44.3637 0.84 44.8537 0.969999 45.2537 1.23C45.6737 1.47 45.8837 1.85 45.8837 2.37C45.8837 3.13 45.6337 3.82 45.1337 4.44C44.6537 5.04 44.0637 5.57 43.3637 6.03C42.6837 6.47 42.0337 6.83 41.4137 7.11C41.3337 7.15 41.2437 7.19 41.1437 7.23C41.0637 7.27 40.9737 7.29 40.8737 7.29C40.7937 7.29 40.6937 7.26 40.5737 7.2L39.4637 6.66ZM58.6379 20.49C58.8179 20.67 58.9679 20.89 59.0879 21.15C59.2079 21.41 59.2679 21.74 59.2679 22.14C59.2679 22.4 59.2379 22.7 59.1779 23.04C59.0579 23.64 58.7679 24.26 58.3079 24.9C57.8479 25.54 57.3279 26.14 56.7479 26.7C56.1879 27.28 55.6679 27.74 55.1879 28.08C54.7079 28.44 54.3779 28.62 54.1979 28.62C54.1179 28.62 54.0079 28.59 53.8679 28.53C53.7279 28.49 53.4379 28.37 52.9979 28.17C53.7179 27.61 54.2879 27 54.7079 26.34C55.1479 25.7 55.3679 25.14 55.3679 24.66C55.3679 24.38 55.2879 24.16 55.1279 24L53.9579 22.83C53.5779 22.45 53.3879 22.06 53.3879 21.66C53.3879 21.26 53.5779 20.87 53.9579 20.49L55.1279 19.32C55.5079 18.94 55.8979 18.75 56.2979 18.75C56.6979 18.75 57.0879 18.94 57.4679 19.32L58.6379 20.49ZM98.7601 22.2C99.0601 22.2 99.2101 22.35 99.2101 22.65V23.55C99.2101 23.85 99.0601 24 98.7601 24H90.3001C90.0001 24 89.8501 23.85 89.8501 23.55V22.65C89.8501 22.35 90.0001 22.2 90.3001 22.2H90.4501C91.0901 22.2 91.5101 21.97 91.7101 21.51C91.9101 21.03 92.0101 20.31 92.0101 19.35V14.22C92.0101 13.68 91.9601 13.19 91.8601 12.75C91.7801 12.29 91.5801 11.93 91.2601 11.67C90.9601 11.39 90.4901 11.25 89.8501 11.25C88.9901 11.25 88.2301 11.52 87.5701 12.06C86.9301 12.6 86.3901 13.28 85.9501 14.1V19.35C85.9501 20.45 86.1201 21.2 86.4601 21.6C86.8201 22 87.2901 22.2 87.8701 22.2H88.1101C88.4101 22.2 88.5601 22.35 88.5601 22.65V23.55C88.5601 23.85 88.4101 24 88.1101 24H79.9501C79.6501 24 79.5001 23.85 79.5001 23.55V22.65C79.5001 22.35 79.6501 22.2 79.9501 22.2H80.1601C80.5801 22.2 80.9501 22 81.2701 21.6C81.5901 21.2 81.7501 20.45 81.7501 19.35V14.22C81.7501 13.26 81.6201 12.53 81.3601 12.03C81.1201 11.51 80.5301 11.25 79.5901 11.25C79.0901 11.25 78.5901 11.38 78.0901 11.64C77.5901 11.88 77.1501 12.2 76.7701 12.6C76.3901 12.98 76.1101 13.39 75.9301 13.83V19.35C75.9301 20.15 76.1001 20.83 76.4401 21.39C76.8001 21.93 77.2701 22.2 77.8501 22.2H77.9101C78.2101 22.2 78.3601 22.35 78.3601 22.65V23.55C78.3601 23.85 78.2101 24 77.9101 24H69.4801C69.1801 24 69.0301 23.85 69.0301 23.55V22.65C69.0301 22.35 69.1801 22.2 69.4801 22.2H69.5401C70.2801 22.2 70.8301 21.93 71.1901 21.39C71.5501 20.83 71.7301 20.15 71.7301 19.35V15.57C71.7301 15.03 71.6901 14.51 71.6101 14.01C71.5501 13.51 71.3901 13.09 71.1301 12.75C70.8901 12.39 70.4901 12.18 69.9301 12.12C69.7101 12.1 69.6001 11.97 69.6001 11.73V10.71C69.6001 10.51 69.7401 10.38 70.0201 10.32C71.4601 10.1 72.6901 9.76 73.7101 9.3C74.7501 8.84 75.4701 8.47 75.8701 8.19C75.9701 8.11 76.0501 8.07 76.1101 8.07H76.1401C76.1801 8.07 76.2001 8.09 76.2001 8.13C76.2001 8.17 76.1901 8.25 76.1701 8.37L75.6601 12.06C75.9401 11.6 76.3101 11.11 76.7701 10.59C77.2301 10.05 77.8001 9.59 78.4801 9.21C79.1601 8.81 79.9501 8.61 80.8501 8.61C82.3301 8.61 83.4301 8.89 84.1501 9.45C84.8701 9.99 85.3601 10.69 85.6201 11.55C86.3001 10.67 87.0901 9.96 87.9901 9.42C88.9101 8.88 89.9601 8.61 91.1401 8.61C92.2201 8.61 93.0901 8.78 93.7501 9.12C94.4301 9.44 94.9501 9.88 95.3101 10.44C95.6701 10.98 95.9101 11.6 96.0301 12.3C96.1701 12.98 96.2401 13.68 96.2401 14.4V19.35C96.2401 20.15 96.4201 20.83 96.7801 21.39C97.1601 21.93 97.7101 22.2 98.4301 22.2H98.7601ZM103.742 18.63C104.082 19.47 104.622 20.22 105.362 20.88C106.122 21.54 107.082 21.87 108.242 21.87C108.882 21.87 109.552 21.69 110.252 21.33C110.952 20.97 111.562 20.41 112.082 19.65C112.142 19.55 112.222 19.5 112.322 19.5C112.422 19.5 112.522 19.53 112.622 19.59C112.742 19.65 113.042 19.82 113.522 20.1C113.602 20.16 113.642 20.24 113.642 20.34C113.642 20.48 113.582 20.65 113.462 20.85C112.902 21.89 112.142 22.74 111.182 23.4C110.222 24.06 108.972 24.39 107.432 24.39C105.772 24.39 104.342 24.02 103.142 23.28C101.942 22.54 101.012 21.56 100.352 20.34C99.7122 19.12 99.3922 17.79 99.3922 16.35C99.3922 14.97 99.5922 13.79 99.9922 12.81C100.412 11.81 100.962 11.01 101.642 10.41C102.322 9.79 103.082 9.34 103.922 9.06C104.782 8.76 105.652 8.61 106.532 8.61C107.532 8.61 108.412 8.81 109.172 9.21C109.932 9.59 110.572 10.08 111.092 10.68C111.632 11.28 112.032 11.92 112.292 12.6C112.572 13.26 112.712 13.88 112.712 14.46C112.712 14.62 112.622 14.74 112.442 14.82L103.742 18.63ZM108.212 14.34C108.212 13.38 107.982 12.59 107.522 11.97C107.062 11.35 106.482 11.04 105.782 11.04C104.962 11.04 104.312 11.37 103.832 12.03C103.352 12.67 103.112 13.48 103.112 14.46C103.112 14.76 103.122 15.13 103.142 15.57C103.182 16.01 103.262 16.41 103.382 16.77L108.212 14.34ZM137.422 18.45C137.422 19.17 137.532 19.82 137.752 20.4C137.972 20.96 138.452 21.29 139.192 21.39C139.432 21.41 139.552 21.54 139.552 21.78V22.77C139.552 23.05 139.402 23.19 139.102 23.19C138.122 23.19 137.302 23.25 136.642 23.37C136.002 23.47 135.442 23.61 134.962 23.79C134.502 23.95 134.042 24.13 133.582 24.33C133.502 24.37 133.432 24.39 133.372 24.39H133.282C133.242 24.39 133.222 24.35 133.222 24.27C133.222 24.19 133.242 24 133.282 23.7C133.322 23.38 133.362 23.03 133.402 22.65C133.462 22.25 133.512 21.91 133.552 21.63C133.452 21.89 133.232 22.24 132.892 22.68C132.572 23.12 132.092 23.52 131.452 23.88C130.832 24.22 130.012 24.39 128.992 24.39C128.312 24.39 127.582 24.25 126.802 23.97C126.042 23.69 125.322 23.24 124.642 22.62C123.962 22 123.402 21.19 122.962 20.19C122.542 19.17 122.332 17.93 122.332 16.47C122.332 14.61 122.662 13.11 123.322 11.97C124.002 10.81 124.872 9.96 125.932 9.42C127.012 8.88 128.152 8.61 129.352 8.61C130.332 8.61 131.232 8.76 132.052 9.06C132.872 9.36 133.592 9.79 134.212 10.35C134.732 10.13 135.172 9.93 135.532 9.75C135.912 9.55 136.232 9.35 136.492 9.15C136.592 9.07 136.692 8.99 136.792 8.91C136.912 8.83 137.042 8.75 137.182 8.67C137.242 8.63 137.292 8.61 137.332 8.61H137.362C137.402 8.61 137.422 8.63 137.422 8.67V18.45ZM133.222 13.74C133.162 13.34 133.012 12.9 132.772 12.42C132.552 11.92 132.212 11.5 131.752 11.16C131.292 10.8 130.672 10.62 129.892 10.62C128.932 10.62 128.182 10.86 127.642 11.34C127.102 11.8 126.722 12.4 126.502 13.14C126.302 13.88 126.202 14.67 126.202 15.51C126.202 17.43 126.582 18.95 127.342 20.07C128.122 21.19 129.122 21.75 130.342 21.75C131.062 21.75 131.622 21.6 132.022 21.3C132.442 20.98 132.742 20.66 132.922 20.34C133.102 20.02 133.202 19.83 133.222 19.77V13.74ZM142.923 16.17C142.923 15.71 142.883 15.25 142.803 14.79C142.743 14.33 142.593 13.93 142.353 13.59C142.113 13.25 141.713 13.05 141.153 12.99C140.913 12.97 140.793 12.84 140.793 12.6V11.58C140.793 11.46 140.833 11.38 140.913 11.34C140.993 11.28 141.103 11.23 141.243 11.19C142.823 10.67 144.033 10.14 144.873 9.6C145.733 9.04 146.363 8.55 146.763 8.13C146.803 8.09 146.843 8.07 146.883 8.07H146.973C147.013 8.07 147.033 8.09 147.033 8.13V22.14C147.033 23.06 146.953 24 146.793 24.96C146.633 25.94 146.333 26.84 145.893 27.66C145.453 28.5 144.823 29.17 144.003 29.67C143.203 30.17 142.143 30.42 140.823 30.42C139.903 30.42 139.133 30.29 138.513 30.03C137.873 29.79 137.373 29.5 137.013 29.16C136.633 28.82 136.363 28.49 136.203 28.17C136.043 27.85 135.963 27.62 135.963 27.48C135.963 27.22 136.073 27.01 136.293 26.85L138.213 25.47C138.413 25.33 138.553 25.26 138.633 25.26C138.713 25.26 138.793 25.29 138.873 25.35C138.933 25.41 138.963 25.52 138.963 25.68C138.963 26.16 139.023 26.63 139.143 27.09C139.263 27.57 139.473 27.96 139.773 28.26C140.073 28.58 140.493 28.74 141.033 28.74C141.653 28.74 142.093 28.53 142.353 28.11C142.613 27.69 142.773 27.13 142.833 26.43C142.893 25.73 142.923 24.97 142.923 24.15V16.17ZM144.933 1.8C145.453 1.8 145.963 2.05 146.463 2.55C146.963 3.05 147.213 3.55 147.213 4.05C147.213 4.55 146.963 5.05 146.463 5.55C145.963 6.05 145.453 6.3 144.933 6.3C144.453 6.3 143.953 6.05 143.433 5.55C142.933 5.07 142.683 4.57 142.683 4.05C142.683 3.55 142.933 3.05 143.433 2.55C143.933 2.05 144.433 1.8 144.933 1.8ZM166.135 17.94C166.135 18.46 166.165 18.98 166.225 19.5C166.305 20 166.465 20.43 166.705 20.79C166.965 21.13 167.365 21.33 167.905 21.39C168.065 21.41 168.155 21.46 168.175 21.54C168.215 21.6 168.235 21.68 168.235 21.78V22.77C168.235 23.05 168.095 23.19 167.815 23.19C166.835 23.19 166.015 23.25 165.355 23.37C164.715 23.47 164.155 23.61 163.675 23.79C163.215 23.95 162.755 24.13 162.295 24.33C162.215 24.37 162.135 24.39 162.055 24.39H161.995C161.955 24.39 161.935 24.36 161.935 24.3C161.935 24.24 161.965 23.94 162.025 23.4C162.105 22.84 162.235 21.88 162.415 20.52C162.135 21.08 161.745 21.66 161.245 22.26C160.745 22.86 160.135 23.37 159.415 23.79C158.715 24.19 157.905 24.39 156.985 24.39C155.905 24.39 155.025 24.23 154.345 23.91C153.685 23.57 153.175 23.13 152.815 22.59C152.455 22.03 152.205 21.41 152.065 20.73C151.945 20.03 151.885 19.32 151.885 18.6V13.65C151.885 12.83 151.695 12.15 151.315 11.61C150.955 11.07 150.405 10.8 149.665 10.8H149.545C149.245 10.8 149.095 10.65 149.095 10.35V9.45C149.095 9.15 149.245 9 149.545 9H155.635C155.935 9 156.085 9.15 156.085 9.45V18.78C156.085 19.32 156.135 19.82 156.235 20.28C156.335 20.72 156.535 21.08 156.835 21.36C157.155 21.62 157.625 21.75 158.245 21.75C158.745 21.75 159.245 21.63 159.745 21.39C160.245 21.13 160.685 20.81 161.065 20.43C161.465 20.03 161.745 19.62 161.905 19.2V13.65C161.905 12.83 161.715 12.15 161.335 11.61C160.975 11.07 160.435 10.8 159.715 10.8H159.655C159.355 10.8 159.205 10.65 159.205 10.35V9.45C159.205 9.15 159.355 9 159.655 9H165.685C165.985 9 166.135 9.15 166.135 9.45V17.94ZM184.004 18.45C184.004 19.17 184.114 19.82 184.334 20.4C184.554 20.96 185.034 21.29 185.774 21.39C186.014 21.41 186.134 21.54 186.134 21.78V22.77C186.134 23.05 185.984 23.19 185.684 23.19C184.704 23.19 183.884 23.25 183.224 23.37C182.584 23.47 182.024 23.61 181.544 23.79C181.084 23.95 180.624 24.13 180.164 24.33C180.084 24.37 180.014 24.39 179.954 24.39H179.894C179.834 24.39 179.804 24.36 179.804 24.3C179.844 23.84 179.884 23.39 179.924 22.95C179.984 22.51 180.054 22.07 180.134 21.63C180.034 21.89 179.814 22.24 179.474 22.68C179.154 23.12 178.674 23.52 178.034 23.88C177.414 24.22 176.594 24.39 175.574 24.39C174.894 24.39 174.164 24.25 173.384 23.97C172.624 23.69 171.904 23.24 171.224 22.62C170.544 22 169.984 21.19 169.544 20.19C169.124 19.17 168.914 17.93 168.914 16.47C168.914 14.61 169.244 13.11 169.904 11.97C170.584 10.81 171.454 9.96 172.514 9.42C173.594 8.88 174.734 8.61 175.934 8.61C177.454 8.61 178.744 9.08 179.804 10.02V8.1C179.804 7.56 179.764 7.04 179.684 6.54C179.624 6.04 179.474 5.62 179.234 5.28C178.994 4.92 178.594 4.71 178.034 4.65C177.794 4.63 177.674 4.5 177.674 4.26V3.24C177.674 3.12 177.714 3.04 177.794 3C177.874 2.94 177.984 2.89 178.124 2.85C179.704 2.33 180.934 1.81 181.814 1.29C182.714 0.769999 183.364 0.359999 183.764 0.0599989C183.824 0.0199994 183.874 -3.57628e-07 183.914 -3.57628e-07H183.944C183.984 -3.57628e-07 184.004 0.0199994 184.004 0.0599989V18.45ZM179.804 14.28C179.804 13.34 179.494 12.54 178.874 11.88C178.274 11.22 177.474 10.89 176.474 10.89C175.514 10.89 174.764 11.1 174.224 11.52C173.684 11.94 173.304 12.5 173.084 13.2C172.884 13.9 172.784 14.67 172.784 15.51C172.784 17.43 173.164 18.95 173.924 20.07C174.704 21.19 175.704 21.75 176.924 21.75C177.464 21.75 177.934 21.62 178.334 21.36C178.734 21.08 179.054 20.74 179.294 20.34C179.554 19.94 179.724 19.56 179.804 19.2V14.28ZM201.875 18.45C201.875 19.17 201.985 19.82 202.205 20.4C202.425 20.96 202.905 21.29 203.645 21.39C203.885 21.41 204.005 21.54 204.005 21.78V22.77C204.005 23.05 203.855 23.19 203.555 23.19C202.575 23.19 201.755 23.25 201.095 23.37C200.455 23.47 199.895 23.61 199.415 23.79C198.955 23.95 198.495 24.13 198.035 24.33C197.955 24.37 197.885 24.39 197.825 24.39H197.735C197.695 24.39 197.675 24.35 197.675 24.27C197.675 24.19 197.695 24 197.735 23.7C197.775 23.38 197.815 23.03 197.855 22.65C197.915 22.25 197.965 21.91 198.005 21.63C197.905 21.89 197.685 22.24 197.345 22.68C197.025 23.12 196.545 23.52 195.905 23.88C195.285 24.22 194.465 24.39 193.445 24.39C192.765 24.39 192.035 24.25 191.255 23.97C190.495 23.69 189.775 23.24 189.095 22.62C188.415 22 187.855 21.19 187.415 20.19C186.995 19.17 186.785 17.93 186.785 16.47C186.785 14.61 187.115 13.11 187.775 11.97C188.455 10.81 189.325 9.96 190.385 9.42C191.465 8.88 192.605 8.61 193.805 8.61C194.785 8.61 195.685 8.76 196.505 9.06C197.325 9.36 198.045 9.79 198.665 10.35C199.185 10.13 199.625 9.93 199.985 9.75C200.365 9.55 200.685 9.35 200.945 9.15C201.045 9.07 201.145 8.99 201.245 8.91C201.365 8.83 201.495 8.75 201.635 8.67C201.695 8.63 201.745 8.61 201.785 8.61H201.815C201.855 8.61 201.875 8.63 201.875 8.67V18.45ZM197.675 13.74C197.615 13.34 197.465 12.9 197.225 12.42C197.005 11.92 196.665 11.5 196.205 11.16C195.745 10.8 195.125 10.62 194.345 10.62C193.385 10.62 192.635 10.86 192.095 11.34C191.555 11.8 191.175 12.4 190.955 13.14C190.755 13.88 190.655 14.67 190.655 15.51C190.655 17.43 191.035 18.95 191.795 20.07C192.575 21.19 193.575 21.75 194.795 21.75C195.515 21.75 196.075 21.6 196.475 21.3C196.895 20.98 197.195 20.66 197.375 20.34C197.555 20.02 197.655 19.83 197.675 19.77V13.74ZM227.949 18.45C227.949 19.17 228.059 19.82 228.279 20.4C228.499 20.96 228.979 21.29 229.719 21.39C229.959 21.41 230.079 21.54 230.079 21.78V22.77C230.079 23.05 229.929 23.19 229.629 23.19C228.649 23.19 227.829 23.25 227.169 23.37C226.529 23.47 225.969 23.61 225.489 23.79C225.029 23.95 224.569 24.13 224.109 24.33C224.029 24.37 223.959 24.39 223.899 24.39H223.809C223.769 24.39 223.749 24.35 223.749 24.27C223.749 24.19 223.769 24 223.809 23.7C223.849 23.38 223.889 23.03 223.929 22.65C223.989 22.25 224.039 21.91 224.079 21.63C223.979 21.89 223.759 22.24 223.419 22.68C223.099 23.12 222.619 23.52 221.979 23.88C221.359 24.22 220.539 24.39 219.519 24.39C218.839 24.39 218.109 24.25 217.329 23.97C216.569 23.69 215.849 23.24 215.169 22.62C214.489 22 213.929 21.19 213.489 20.19C213.069 19.17 212.859 17.93 212.859 16.47C212.859 14.61 213.189 13.11 213.849 11.97C214.529 10.81 215.399 9.96 216.459 9.42C217.539 8.88 218.679 8.61 219.879 8.61C220.859 8.61 221.759 8.76 222.579 9.06C223.399 9.36 224.119 9.79 224.739 10.35C225.259 10.13 225.699 9.93 226.059 9.75C226.439 9.55 226.759 9.35 227.019 9.15C227.119 9.07 227.219 8.99 227.319 8.91C227.439 8.83 227.569 8.75 227.709 8.67C227.769 8.63 227.819 8.61 227.859 8.61H227.889C227.929 8.61 227.949 8.63 227.949 8.67V18.45ZM223.749 13.74C223.689 13.34 223.539 12.9 223.299 12.42C223.079 11.92 222.739 11.5 222.279 11.16C221.819 10.8 221.199 10.62 220.419 10.62C219.459 10.62 218.709 10.86 218.169 11.34C217.629 11.8 217.249 12.4 217.029 13.14C216.829 13.88 216.729 14.67 216.729 15.51C216.729 17.43 217.109 18.95 217.869 20.07C218.649 21.19 219.649 21.75 220.869 21.75C221.589 21.75 222.149 21.6 222.549 21.3C222.969 20.98 223.269 20.66 223.449 20.34C223.629 20.02 223.729 19.83 223.749 19.77V13.74ZM252.193 19.95C252.353 20.07 252.433 20.2 252.433 20.34C252.433 20.38 252.413 20.46 252.373 20.58C251.793 21.86 250.933 22.82 249.793 23.46C248.673 24.08 247.443 24.39 246.103 24.39C244.983 24.39 243.963 24.15 243.043 23.67C242.123 23.17 241.343 22.51 240.703 21.69C240.063 20.87 239.593 19.95 239.293 18.93C238.993 17.91 238.883 16.86 238.963 15.78C239.103 14.12 239.563 12.76 240.343 11.7C241.123 10.64 242.063 9.86 243.163 9.36C244.283 8.86 245.403 8.61 246.523 8.61C247.843 8.61 248.913 8.81 249.733 9.21C250.553 9.61 251.183 10.13 251.623 10.77C252.063 11.41 252.363 12.08 252.523 12.78C252.543 12.86 252.553 12.93 252.553 12.99C252.553 13.15 252.433 13.26 252.193 13.32L248.743 14.22C248.623 14.26 248.533 14.28 248.473 14.28C248.333 14.28 248.263 14.21 248.263 14.07C248.263 13.99 248.263 13.91 248.263 13.83C248.283 13.75 248.293 13.64 248.293 13.5C248.293 12.86 248.093 12.29 247.693 11.79C247.293 11.29 246.673 11.04 245.833 11.04C245.073 11.04 244.473 11.28 244.033 11.76C243.593 12.24 243.273 12.86 243.073 13.62C242.893 14.36 242.803 15.14 242.803 15.96C242.803 16.94 242.933 17.87 243.193 18.75C243.453 19.63 243.873 20.35 244.453 20.91C245.053 21.45 245.863 21.72 246.883 21.72C247.683 21.72 248.423 21.53 249.103 21.15C249.783 20.75 250.343 20.21 250.783 19.53C250.863 19.39 250.983 19.32 251.143 19.32C251.243 19.32 251.333 19.35 251.413 19.41L252.193 19.95ZM261.375 8.61C262.515 8.61 263.565 8.84 264.525 9.3C265.505 9.74 266.345 10.35 267.045 11.13C267.745 11.89 268.285 12.75 268.665 13.71C269.065 14.65 269.265 15.63 269.265 16.65C269.265 18.13 268.915 19.46 268.215 20.64C267.515 21.8 266.595 22.72 265.455 23.4C264.315 24.06 263.075 24.39 261.735 24.39C260.595 24.39 259.545 24.17 258.585 23.73C257.625 23.29 256.785 22.7 256.065 21.96C255.365 21.2 254.815 20.34 254.415 19.38C254.035 18.4 253.845 17.38 253.845 16.32C253.845 14.86 254.185 13.55 254.865 12.39C255.545 11.23 256.455 10.31 257.595 9.63C258.735 8.95 259.995 8.61 261.375 8.61ZM262.665 21.96C263.045 21.96 263.465 21.86 263.925 21.66C264.385 21.46 264.785 21.11 265.125 20.61C265.485 20.11 265.665 19.42 265.665 18.54C265.665 17.84 265.525 17.07 265.245 16.23C264.985 15.37 264.615 14.55 264.135 13.77C263.675 12.97 263.125 12.32 262.485 11.82C261.865 11.3 261.185 11.04 260.445 11.04C259.625 11.04 258.915 11.35 258.315 11.97C257.715 12.57 257.415 13.4 257.415 14.46C257.415 15.14 257.545 15.91 257.805 16.77C258.085 17.63 258.455 18.46 258.915 19.26C259.395 20.04 259.955 20.69 260.595 21.21C261.235 21.71 261.925 21.96 262.665 21.96ZM300.059 22.2C300.359 22.2 300.509 22.35 300.509 22.65V23.55C300.509 23.85 300.359 24 300.059 24H291.599C291.299 24 291.149 23.85 291.149 23.55V22.65C291.149 22.35 291.299 22.2 291.599 22.2H291.749C292.389 22.2 292.809 21.97 293.009 21.51C293.209 21.03 293.309 20.31 293.309 19.35V14.22C293.309 13.68 293.259 13.19 293.159 12.75C293.079 12.29 292.879 11.93 292.559 11.67C292.259 11.39 291.789 11.25 291.149 11.25C290.289 11.25 289.529 11.52 288.869 12.06C288.229 12.6 287.689 13.28 287.249 14.1V19.35C287.249 20.45 287.419 21.2 287.759 21.6C288.119 22 288.589 22.2 289.169 22.2H289.409C289.709 22.2 289.859 22.35 289.859 22.65V23.55C289.859 23.85 289.709 24 289.409 24H281.249C280.949 24 280.799 23.85 280.799 23.55V22.65C280.799 22.35 280.949 22.2 281.249 22.2H281.459C281.879 22.2 282.249 22 282.569 21.6C282.889 21.2 283.049 20.45 283.049 19.35V14.22C283.049 13.26 282.919 12.53 282.659 12.03C282.419 11.51 281.829 11.25 280.889 11.25C280.389 11.25 279.889 11.38 279.389 11.64C278.889 11.88 278.449 12.2 278.069 12.6C277.689 12.98 277.409 13.39 277.229 13.83V19.35C277.229 20.15 277.399 20.83 277.739 21.39C278.099 21.93 278.569 22.2 279.149 22.2H279.209C279.509 22.2 279.659 22.35 279.659 22.65V23.55C279.659 23.85 279.509 24 279.209 24H270.779C270.479 24 270.329 23.85 270.329 23.55V22.65C270.329 22.35 270.479 22.2 270.779 22.2H270.839C271.579 22.2 272.129 21.93 272.489 21.39C272.849 20.83 273.029 20.15 273.029 19.35V15.57C273.029 15.03 272.989 14.51 272.909 14.01C272.849 13.51 272.689 13.09 272.429 12.75C272.189 12.39 271.789 12.18 271.229 12.12C271.009 12.1 270.899 11.97 270.899 11.73V10.71C270.899 10.51 271.039 10.38 271.319 10.32C272.759 10.1 273.989 9.76 275.009 9.3C276.049 8.84 276.769 8.47 277.169 8.19C277.269 8.11 277.349 8.07 277.409 8.07H277.439C277.479 8.07 277.499 8.09 277.499 8.13C277.499 8.17 277.489 8.25 277.469 8.37L276.959 12.06C277.239 11.6 277.609 11.11 278.069 10.59C278.529 10.05 279.099 9.59 279.779 9.21C280.459 8.81 281.249 8.61 282.149 8.61C283.629 8.61 284.729 8.89 285.449 9.45C286.169 9.99 286.659 10.69 286.919 11.55C287.599 10.67 288.389 9.96 289.289 9.42C290.209 8.88 291.259 8.61 292.439 8.61C293.519 8.61 294.389 8.78 295.049 9.12C295.729 9.44 296.249 9.88 296.609 10.44C296.969 10.98 297.209 11.6 297.329 12.3C297.469 12.98 297.539 13.68 297.539 14.4V19.35C297.539 20.15 297.719 20.83 298.079 21.39C298.459 21.93 299.009 22.2 299.729 22.2H300.059ZM305.041 18.63C305.381 19.47 305.921 20.22 306.661 20.88C307.421 21.54 308.381 21.87 309.541 21.87C310.181 21.87 310.851 21.69 311.551 21.33C312.251 20.97 312.861 20.41 313.381 19.65C313.441 19.55 313.521 19.5 313.621 19.5C313.721 19.5 313.821 19.53 313.921 19.59C314.041 19.65 314.341 19.82 314.821 20.1C314.901 20.16 314.941 20.24 314.941 20.34C314.941 20.48 314.881 20.65 314.761 20.85C314.201 21.89 313.441 22.74 312.481 23.4C311.521 24.06 310.271 24.39 308.731 24.39C307.071 24.39 305.641 24.02 304.441 23.28C303.241 22.54 302.311 21.56 301.651 20.34C301.011 19.12 300.691 17.79 300.691 16.35C300.691 14.97 300.891 13.79 301.291 12.81C301.711 11.81 302.261 11.01 302.941 10.41C303.621 9.79 304.381 9.34 305.221 9.06C306.081 8.76 306.951 8.61 307.831 8.61C308.831 8.61 309.711 8.81 310.471 9.21C311.231 9.59 311.871 10.08 312.391 10.68C312.931 11.28 313.331 11.92 313.591 12.6C313.871 13.26 314.011 13.88 314.011 14.46C314.011 14.62 313.921 14.74 313.741 14.82L305.041 18.63ZM309.511 14.34C309.511 13.38 309.281 12.59 308.821 11.97C308.361 11.35 307.781 11.04 307.081 11.04C306.261 11.04 305.611 11.37 305.131 12.03C304.651 12.67 304.411 13.48 304.411 14.46C304.411 14.76 304.421 15.13 304.441 15.57C304.481 16.01 304.561 16.41 304.681 16.77L309.511 14.34ZM322.16 12.15C322.7 10.99 323.45 10.11 324.41 9.51C325.37 8.91 326.38 8.61 327.44 8.61C328.38 8.61 329.18 8.87 329.84 9.39C330.5 9.91 330.83 10.68 330.83 11.7C330.83 12.14 330.79 12.53 330.71 12.87C330.63 13.21 330.41 13.46 330.05 13.62L327.23 14.76C327.11 14.8 327.02 14.82 326.96 14.82C326.78 14.82 326.69 14.73 326.69 14.55C326.69 14.49 326.71 14.4 326.75 14.28C326.87 14 326.94 13.73 326.96 13.47C327 13.21 327.02 12.98 327.02 12.78C327.02 12.24 326.88 11.85 326.6 11.61C326.34 11.35 326.01 11.22 325.61 11.22C325.15 11.22 324.72 11.36 324.32 11.64C323.92 11.92 323.57 12.26 323.27 12.66C322.97 13.06 322.75 13.45 322.61 13.83V19.35C322.61 20.15 322.79 20.83 323.15 21.39C323.51 21.93 324.06 22.2 324.8 22.2H324.86C325.16 22.2 325.31 22.35 325.31 22.65V23.55C325.31 23.85 325.16 24 324.86 24H316.13C315.83 24 315.68 23.85 315.68 23.55V22.65C315.68 22.35 315.83 22.2 316.13 22.2H316.19C316.93 22.2 317.48 21.93 317.84 21.39C318.2 20.83 318.38 20.15 318.38 19.35V15.57C318.38 15.03 318.34 14.51 318.26 14.01C318.2 13.51 318.05 13.09 317.81 12.75C317.57 12.39 317.17 12.18 316.61 12.12C316.37 12.1 316.25 11.97 316.25 11.73V10.71C316.25 10.51 316.4 10.38 316.7 10.32C318.12 10.1 319.36 9.75 320.42 9.27C321.5 8.79 322.23 8.41 322.61 8.13C322.67 8.09 322.72 8.07 322.76 8.07H322.82C322.86 8.07 322.88 8.09 322.88 8.13C322.88 8.15 322.85 8.3 322.79 8.58C322.75 8.86 322.69 9.22 322.61 9.66C322.55 10.08 322.47 10.52 322.37 10.98C322.29 11.42 322.22 11.81 322.16 12.15ZM333.419 9C333.199 9.08 333.029 9.1 332.909 9.06C332.809 9.02 332.709 8.93 332.609 8.79C332.369 8.47 332.159 8.09 331.979 7.65C331.819 7.19 331.739 6.69 331.739 6.15C331.739 5.05 332.029 4.1 332.609 3.3C333.189 2.48 333.959 1.85 334.919 1.41C335.879 0.969999 336.939 0.749999 338.099 0.749999C339.859 0.749999 341.279 1.04 342.359 1.62C343.459 2.18 344.259 2.88 344.759 3.72C345.279 4.56 345.539 5.39 345.539 6.21C345.539 7.29 345.359 8.2 344.999 8.94C344.659 9.66 344.209 10.28 343.649 10.8C343.109 11.3 342.529 11.73 341.909 12.09C341.309 12.43 340.729 12.76 340.169 13.08C339.629 13.38 339.179 13.7 338.819 14.04C338.479 14.38 338.309 14.8 338.309 15.3C338.309 15.68 338.309 15.98 338.309 16.2C338.309 16.4 338.299 16.57 338.279 16.71C338.259 16.95 338.129 17.07 337.889 17.07H335.999C335.879 17.07 335.769 17.06 335.669 17.04C335.569 17 335.509 16.92 335.489 16.8C335.469 16.66 335.459 16.46 335.459 16.2C335.459 15.92 335.459 15.62 335.459 15.3C335.459 14.58 335.589 13.98 335.849 13.5C336.129 13.02 336.479 12.6 336.899 12.24C337.339 11.88 337.789 11.54 338.249 11.22C338.729 10.88 339.179 10.51 339.599 10.11C340.039 9.71 340.389 9.22 340.649 8.64C340.929 8.06 341.069 7.34 341.069 6.48C341.069 5.44 340.799 4.65 340.259 4.11C339.719 3.57 339.039 3.3 338.219 3.3C337.399 3.3 336.759 3.51 336.299 3.93C335.839 4.35 335.609 4.91 335.609 5.61C335.609 6.19 335.799 6.85 336.179 7.59C336.239 7.71 336.269 7.82 336.269 7.92C336.269 8 336.239 8.06 336.179 8.1C336.139 8.12 336.069 8.15 335.969 8.19L333.419 9ZM335.789 19.32C336.169 18.94 336.549 18.75 336.929 18.75C337.329 18.75 337.719 18.94 338.099 19.32L339.269 20.49C339.649 20.87 339.839 21.26 339.839 21.66C339.839 22.06 339.649 22.45 339.269 22.83L338.099 24C337.719 24.38 337.329 24.57 336.929 24.57C336.549 24.57 336.169 24.38 335.789 24L334.589 22.83C334.229 22.47 334.049 22.08 334.049 21.66C334.049 21.24 334.229 20.85 334.589 20.49L335.789 19.32Z" fill="#181519"/>
</svg>
